<mxfile host="app.diagrams.net" modified="2023-08-25T07:24:22.385Z" agent="Mozilla/5.0 (Windows NT 10.0; Win64; x64) AppleWebKit/537.36 (KHTML, like Gecko) Chrome/116.0.0.0 Safari/537.36 Edg/116.0.1938.54" etag="HiuTyS749yDEql3mSbZw" version="21.6.9" type="github">
  <diagram name="Page-1" id="97916047-d0de-89f5-080d-49f4d83e522f">
    <mxGraphModel dx="336" dy="269" grid="1" gridSize="10" guides="1" tooltips="1" connect="1" arrows="1" fold="1" page="1" pageScale="1.5" pageWidth="1169" pageHeight="827" background="none" math="0" shadow="0">
      <root>
        <mxCell id="0" />
        <mxCell id="1" parent="0" />
        <mxCell id="vQyYzgt6CzWpjhPfpBeB-75" value="Tom、James" style="ellipse;whiteSpace=wrap;html=1;" vertex="1" parent="1">
          <mxGeometry x="1038" y="255" width="120" height="80" as="geometry" />
        </mxCell>
        <mxCell id="vQyYzgt6CzWpjhPfpBeB-82" value="(二)普通名词" style="rounded=1;whiteSpace=wrap;html=1;" vertex="1" parent="1">
          <mxGeometry x="600" y="650" width="120" height="60" as="geometry" />
        </mxCell>
        <mxCell id="vQyYzgt6CzWpjhPfpBeB-88" style="edgeStyle=orthogonalEdgeStyle;rounded=0;orthogonalLoop=1;jettySize=auto;html=1;exitX=0;exitY=0.5;exitDx=0;exitDy=0;entryX=0.5;entryY=0;entryDx=0;entryDy=0;" edge="1" parent="1" source="vQyYzgt6CzWpjhPfpBeB-83" target="vQyYzgt6CzWpjhPfpBeB-82">
          <mxGeometry relative="1" as="geometry" />
        </mxCell>
        <mxCell id="vQyYzgt6CzWpjhPfpBeB-83" value="1.个体名词" style="rounded=1;whiteSpace=wrap;html=1;" vertex="1" parent="1">
          <mxGeometry x="770" y="470" width="120" height="60" as="geometry" />
        </mxCell>
        <mxCell id="vQyYzgt6CzWpjhPfpBeB-89" style="edgeStyle=orthogonalEdgeStyle;rounded=0;orthogonalLoop=1;jettySize=auto;html=1;exitX=0;exitY=0.5;exitDx=0;exitDy=0;" edge="1" parent="1" source="vQyYzgt6CzWpjhPfpBeB-84">
          <mxGeometry relative="1" as="geometry">
            <mxPoint x="660.0000000000002" y="650" as="targetPoint" />
          </mxGeometry>
        </mxCell>
        <mxCell id="vQyYzgt6CzWpjhPfpBeB-84" value="2.集体名词" style="rounded=1;whiteSpace=wrap;html=1;" vertex="1" parent="1">
          <mxGeometry x="770" y="550" width="120" height="60" as="geometry" />
        </mxCell>
        <mxCell id="vQyYzgt6CzWpjhPfpBeB-90" style="edgeStyle=orthogonalEdgeStyle;rounded=0;orthogonalLoop=1;jettySize=auto;html=1;exitX=0;exitY=0.5;exitDx=0;exitDy=0;" edge="1" parent="1" source="vQyYzgt6CzWpjhPfpBeB-85" target="vQyYzgt6CzWpjhPfpBeB-82">
          <mxGeometry relative="1" as="geometry" />
        </mxCell>
        <mxCell id="vQyYzgt6CzWpjhPfpBeB-85" value="3.复合名词" style="rounded=1;whiteSpace=wrap;html=1;" vertex="1" parent="1">
          <mxGeometry x="770" y="630" width="120" height="60" as="geometry" />
        </mxCell>
        <mxCell id="vQyYzgt6CzWpjhPfpBeB-91" style="edgeStyle=orthogonalEdgeStyle;rounded=0;orthogonalLoop=1;jettySize=auto;html=1;exitX=0;exitY=0.5;exitDx=0;exitDy=0;entryX=0.5;entryY=1;entryDx=0;entryDy=0;" edge="1" parent="1" source="vQyYzgt6CzWpjhPfpBeB-86" target="vQyYzgt6CzWpjhPfpBeB-82">
          <mxGeometry relative="1" as="geometry" />
        </mxCell>
        <mxCell id="vQyYzgt6CzWpjhPfpBeB-86" value="4.物质名词" style="rounded=1;whiteSpace=wrap;html=1;" vertex="1" parent="1">
          <mxGeometry x="770" y="710" width="120" height="60" as="geometry" />
        </mxCell>
        <mxCell id="vQyYzgt6CzWpjhPfpBeB-92" style="edgeStyle=orthogonalEdgeStyle;rounded=0;orthogonalLoop=1;jettySize=auto;html=1;exitX=0;exitY=0.5;exitDx=0;exitDy=0;entryX=0.5;entryY=1;entryDx=0;entryDy=0;" edge="1" parent="1" source="vQyYzgt6CzWpjhPfpBeB-87" target="vQyYzgt6CzWpjhPfpBeB-82">
          <mxGeometry relative="1" as="geometry" />
        </mxCell>
        <mxCell id="vQyYzgt6CzWpjhPfpBeB-87" value="5.抽象名词" style="rounded=1;whiteSpace=wrap;html=1;" vertex="1" parent="1">
          <mxGeometry x="770" y="790" width="120" height="60" as="geometry" />
        </mxCell>
        <mxCell id="vQyYzgt6CzWpjhPfpBeB-93" value="table桌子、lawyer律师、cat猫、pen笔" style="ellipse;whiteSpace=wrap;html=1;" vertex="1" parent="1">
          <mxGeometry x="900" y="460" width="120" height="80" as="geometry" />
        </mxCell>
        <mxCell id="vQyYzgt6CzWpjhPfpBeB-94" value="people人们、family家人、army军人" style="ellipse;whiteSpace=wrap;html=1;" vertex="1" parent="1">
          <mxGeometry x="900" y="540" width="120" height="80" as="geometry" />
        </mxCell>
        <mxCell id="vQyYzgt6CzWpjhPfpBeB-95" value="passer-by过路人、brother-in-law姐夫" style="ellipse;whiteSpace=wrap;html=1;" vertex="1" parent="1">
          <mxGeometry x="900" y="620" width="120" height="80" as="geometry" />
        </mxCell>
        <mxCell id="vQyYzgt6CzWpjhPfpBeB-96" value="water水、snow雪、sunshine阳光" style="ellipse;whiteSpace=wrap;html=1;" vertex="1" parent="1">
          <mxGeometry x="900" y="700" width="120" height="80" as="geometry" />
        </mxCell>
        <mxCell id="vQyYzgt6CzWpjhPfpBeB-97" value="hope希望、health健康、love爱" style="ellipse;whiteSpace=wrap;html=1;" vertex="1" parent="1">
          <mxGeometry x="900" y="780" width="120" height="80" as="geometry" />
        </mxCell>
      </root>
    </mxGraphModel>
  </diagram>
</mxfile>
